<svg xmlns="http://www.w3.org/2000/svg" xmlns:xlink="http://www.w3.org/1999/xlink" width="361" height="429" viewBox="0 0 361 429">
  <defs>
    <clipPath id="clip-path">
      <rect id="Rectangle_1" data-name="Rectangle 1" width="361" height="429" transform="translate(17.596)" fill="none"/>
    </clipPath>
  </defs>
  <g id="Group_2" data-name="Group 2" transform="translate(-17.596)">
    <g id="Group_1" data-name="Group 1" clip-path="url(#clip-path)">
      <path id="Path_1" data-name="Path 1" d="M17.6,64.92c17.206,8.7,31.975,22.6,50.98,27.19,29.957,5.932,58-14.609,76.17-36.51,23.4-26.764,57.907-55.459,95.56-40.869,42.449,12.731,38.21,55.749,78.619,51,22.411-1.208,44.455-1.717,67.211-.691" fill="none" stroke="#dcdaab" stroke-miterlimit="10" stroke-width="2"/>
      <path id="Path_2" data-name="Path 2" d="M17.6,81.13c18.252,6.754,33.258,20.486,52.27,25.2,32.84,7.2,62.7-15.936,81.729-40.43,23-26.844,59.076-51.76,95.122-35.118,33.454,11.032,36.168,53.631,72.618,51.459,22.042-.259,43.728-1.187,66.081-.051" fill="none" stroke="#dcdaab" stroke-miterlimit="10" stroke-width="2"/>
      <path id="Path_3" data-name="Path 3" d="M17.6,94.61c18.755,4.3,33.719,17.624,52.1,22.79,33.093,9.007,64.493-13.348,83.409-38.751,22.753-26.81,58.522-51.7,94.6-36.258,32.32,9.467,38.635,54.333,74.418,53.8,21.5.37,42.661-.748,64.461.319" fill="none" stroke="#dcdaab" stroke-miterlimit="10" stroke-width="2"/>
      <path id="Path_4" data-name="Path 4" d="M17.6,106.4c24.422,2.26,43.126,23.209,68.15,22.99,35.451.278,54.66-23.243,75.739-47.6,22.882-24.948,59.187-43.679,92.242-27.328,29.157,11.381,37.872,53.334,72.279,53.9,21.028.92,41.737-.458,63.07.5" fill="none" stroke="#dcdaab" stroke-miterlimit="10" stroke-width="2"/>
      <path id="Path_5" data-name="Path 5" d="M17.436,117.56c18.651-1.517,33.832,11.369,50.62,17.2,19.6,7.42,42.452,3,59.74-8.17,11.931-7.765,20.382-19.776,29.81-30.11,23.122-26.142,59.372-48.652,94.79-34.239,29.889,9.737,39.557,47.689,70.2,55.44,23.075,4,46.684.252,70.211,1.559" fill="none" stroke="#dcdaab" stroke-miterlimit="10" stroke-width="2"/>
      <path id="Path_6" data-name="Path 6" d="M17.166,129.14c19.887-5.183,36.561,10.183,54.65,15.51,20.043,6.464,43.317,1.647,60.05-10.88,11.389-8.463,19.18-20.745,29.08-30.63,23.494-25.378,60.16-45.923,94.79-31.439,29.673,10.81,41.115,47.86,72.36,55.609,22.738,4.24,45.834-.046,69.04.98" fill="none" stroke="#dcdaab" stroke-miterlimit="10" stroke-width="2"/>
      <path id="Path_7" data-name="Path 7" d="M16.706,142.16c22.411-10.235,42,11.087,63.57,14.17,38.218,5.769,57.28-14.269,79.349-41.241,22-23.739,53.559-44.4,87.261-37.759,36.009,5.661,50.082,46.9,83.2,57.861,23.318,6.1,47.673.168,71.63.879" fill="none" stroke="#dcdaab" stroke-miterlimit="10" stroke-width="2"/>
      <path id="Path_8" data-name="Path 8" d="M16.026,157.69c13.064-9.622,29.039-3.9,42.13,2.511,33.493,17.77,73.116,6.85,93.819-24.6,21.256-25.7,50.572-49.674,85.531-49.6,41.261-1.5,59.524,43.37,94.129,57.051,23.97,8.015,49.493.246,74.3.459" fill="none" stroke="#dcdaab" stroke-miterlimit="10" stroke-width="2"/>
      <path id="Path_9" data-name="Path 9" d="M15.6,170.34c13.259-12.925,31.3-6.387,45.57,1.011,39.2,18.87,73.178,4.279,96.7-30.013,21.359-24.7,51.341-46.379,85.361-45.138,38.031.933,57.16,40.658,89.6,54.38,24.565,10.358,51.267.751,76.96.29" fill="none" stroke="#dcdaab" stroke-miterlimit="10" stroke-width="2"/>
      <path id="Path_10" data-name="Path 10" d="M15.366,183.33c12.537-14.671,29.509-10.752,44.52-2.578,37.28,19.76,74.7,9.255,97.689-25.764,18.607-22.233,42.864-41.357,71.921-46.868,43.881-10.95,69.419,33.335,104.24,50.211,24.947,12.689,52.775,1.257,79.1-.121" fill="none" stroke="#dcdaab" stroke-miterlimit="10" stroke-width="2"/>
      <path id="Path_11" data-name="Path 11" d="M15.446,196.94c17.446-23.435,36.69-8.55,57.32.281,20.679,8.674,46.612,7.436,64.72-6.551,17.513-14.3,28.461-35.255,47.071-48.459,25.592-20.024,64.239-34.063,93.859-14.621,27.224,16.947,51.076,47.64,85.8,46.491,16.872-1.228,33.219-5.737,50.19-7.741" fill="none" stroke="#dcdaab" stroke-miterlimit="10" stroke-width="2"/>
      <path id="Path_12" data-name="Path 12" d="M15.786,210.9c17.826-28.291,37.4-11,60.34-1.568,20.916,8.368,47.08,6.515,64.56-8.6,13.393-11.469,22.176-27.569,35.481-39.1,25.283-23.5,64.725-43.163,98.519-26.771,19.074,10.843,35.265,26.743,53.75,38.431,28.621,20.884,54.174,8.722,85.46,3.88" fill="none" stroke="#dcdaab" stroke-miterlimit="10" stroke-width="2"/>
      <path id="Path_13" data-name="Path 13" d="M16.386,225c29.783-51.818,57.5,24.77,117-6.211,17.92-10.174,27.1-29.831,41.89-43.369,26.588-25.764,71.521-48.73,106.49-26.321,10.133,7.192,21,14.968,30.64,22.9,15.842,12.544,33.665,27.464,55.09,26.27,14.789-1.2,28.93-5.97,43.71-8.29" fill="none" stroke="#dcdaab" stroke-miterlimit="10" stroke-width="2"/>
      <path id="Path_14" data-name="Path 14" d="M16.7,237.87C50.678,180.99,79.111,266,141.046,225.36c14.944-11.129,23.766-28.529,37.31-41.02,20.5-20.338,49.689-34.906,79.04-32.721,27.246,3.014,48.72,28.956,70.851,43.6,30.1,22.568,47.594,12.389,80.639,6.121" fill="none" stroke="#dcdaab" stroke-miterlimit="10" stroke-width="2"/>
      <path id="Path_15" data-name="Path 15" d="M16.356,248.78c21.749-33.906,38.6-21.6,68.37-8.088,29.244,12.7,62.836-.054,79.819-26.234,25.372-35.981,75.86-67.368,118.8-43.1,12.047,7.885,23.571,17.312,34.889,26.23,12.822,9.867,26.434,21.094,42.95,23.38,16.3,1.42,31.9-5.027,47.92-7.68" fill="none" stroke="#dcdaab" stroke-miterlimit="10" stroke-width="2"/>
      <path id="Path_16" data-name="Path 16" d="M15.486,258.07c21.353-30.169,37.251-27.491,67.34-11.919,26.965,13.61,61.492,8.408,81.05-15.382,12.693-14.767,24.342-30.622,40.7-41.409,24.468-14.827,57.754-21.624,83.29-5.66,11.8,7.571,22.722,17,33.85,25.55,15.545,12.03,32.978,27.047,54.01,24.1,11.913-1.477,23.779-5.269,35.61-7.63" fill="none" stroke="#dcdaab" stroke-miterlimit="10" stroke-width="2"/>
      <path id="Path_17" data-name="Path 17" d="M14.236,266.13c25.16-33.017,42.117-28.432,75.81-11.869,25.314,11.837,57.07,7.439,76.79-12.922,14.966-15.222,27.169-33.672,45.85-44.6,23.7-12.5,54.435-16.4,78.27-2.22,24.778,13.931,57.861,53.985,86.76,51.871,12.614-.947,25.018-4.983,37.43-7.611" fill="none" stroke="#dcdaab" stroke-miterlimit="10" stroke-width="2"/>
      <path id="Path_18" data-name="Path 18" d="M12.746,273.32c54-68.571,82.7,25.688,150.84-18.021,19.077-13.578,31.2-34.995,50.86-47.819,21.17-12.835,49.514-15.792,72.54-6.321,30.326,12.542,61.072,56.5,94.15,58.522,13.242-.077,26.174-4.458,39.1-7.261" fill="none" stroke="#dcdaab" stroke-miterlimit="10" stroke-width="2"/>
      <path id="Path_19" data-name="Path 19" d="M11.126,280.13c58.854-71.639,89.145,25.791,158.53-19.671,18.872-13.286,31.355-34.148,51.12-46.259,21.094-12.057,48.889-12.362,70.91-2.5,31.628,13.944,63.806,62.069,99.53,61.762,11.538-.583,23.248-4.044,34.53-6.6" fill="none" stroke="#dcdaab" stroke-miterlimit="10" stroke-width="2"/>
      <path id="Path_20" data-name="Path 20" d="M9.276,287.41c65.483-75.221,95.385,28.138,169.26-21.71,19.262-13.9,32.305-35.657,53.86-46.34,22.27-9.321,49.277-6.585,69.94,5.64,21.069,12.555,36.8,32.316,57.271,45.75,8.5,6.031,17.2,12.623,27.389,15.47,14.863,3.858,30.253-1.21,44.89-4.27" fill="none" stroke="#dcdaab" stroke-miterlimit="10" stroke-width="2"/>
      <path id="Path_21" data-name="Path 21" d="M7.406,294.93c65.721-73.151,94.751,15.631,163.77-14.579C196.932,269.177,211.4,242.6,235.4,229.01c19.848-9.786,44.669-6.911,64.13,2.569,18.83,9.342,33.081,25.433,48.65,39.081,9.665,8.672,20.238,16.21,30.97,23.47,17.223,13.059,39.2,9.318,58.79,4.63" fill="none" stroke="#dcdaab" stroke-miterlimit="10" stroke-width="2"/>
      <path id="Path_22" data-name="Path 22" d="M5.676,303.09c71.373-76.115,98.472,16.292,170.71-15.349,24.193-10.782,38.94-34.773,61.45-47.911,20.617-11.167,46.823-6.034,66.53,4.869,28.31,16.361,47,44.871,74.67,62.15,19.822,17,40.907,17.163,65.2,10.951" fill="none" stroke="#dcdaab" stroke-miterlimit="10" stroke-width="2"/>
      <path id="Path_23" data-name="Path 23" d="M4.246,312.31c78.21-81.569,106.08,23.6,183.31-19.839,21.155-12.326,35.479-34.073,57.51-44.911,25.8-10.411,55.247,1.358,75.43,18.41,21.678,17.627,38.369,41.178,62.74,55.429,21.437,16.8,39.537,17.547,65.31,11.121" fill="none" stroke="#dcdaab" stroke-miterlimit="10" stroke-width="2"/>
      <path id="Path_24" data-name="Path 24" d="M3.256,323c81.939-83.36,104.708,19.041,182.16-18.669,22.811-11.576,37.666-34.229,59.87-46.551,24.693-11.789,54.09.226,73.49,17.02,22.136,17.681,38.068,42.89,63.24,56.73,24.406,17.163,39.417,19.887,68.57,12.61" fill="none" stroke="#dcdaab" stroke-miterlimit="10" stroke-width="2"/>
      <path id="Path_25" data-name="Path 25" d="M2.876,335.5c88.8-90.824,110.62,28.685,193.64-27.969,18.666-13.363,32.672-33.64,53.95-43.041,26.7-8.574,53.951,6.542,72.5,25.17,18.418,16.316,32.5,38.35,54.37,50.331,28.132,16.834,40.45,22.844,73.931,14.479" fill="none" stroke="#dcdaab" stroke-miterlimit="10" stroke-width="2"/>
      <path id="Path_26" data-name="Path 26" d="M2.9,347.47c85.007-88.925,110.47,29.449,194.071-30.11,17.11-12.963,30.626-31.316,50.139-40.81,24.56-9.392,51.762,2.813,70.16,19.52,14.369,12.365,26.659,27.325,40.06,40.69,8.638,8.225,19.278,13.635,29.69,19.2,19.458,12.027,41.8,14.06,63.83,8.71" fill="none" stroke="#dcdaab" stroke-miterlimit="10" stroke-width="2"/>
      <path id="Path_27" data-name="Path 27" d="M2.976,358.35c28.232-28.8,56.12-43.966,94.84-24.488,29.963,14.836,67.314,18.571,95.24-2.844,17.955-12.7,31.307-31.761,51.32-41.388,29.65-11.453,60.5,7.791,80.55,28.87,8.246,8.3,16.345,17.45,24.16,26.18,9.4,10.975,21.756,17.383,34.49,23.5,20.162,10.937,43.322,13.521,65.72,8.95" fill="none" stroke="#dcdaab" stroke-miterlimit="10" stroke-width="2"/>
      <path id="Path_28" data-name="Path 28" d="M3.106,368.31c28.02-28.7,53.865-41.515,91.97-22.618,33.808,15.752,74.309,17.955,103.49-8.494,14.577-12.056,27.122-27.761,44.86-35.138,30.4-9.87,60.657,10.527,80.48,32.18,9.179,9.314,17.2,20.361,26.39,29.66,8.543,8.04,18.972,13.451,29.57,18.25,20.683,10.25,43.938,13.27,66.73,9.86" fill="none" stroke="#dcdaab" stroke-miterlimit="10" stroke-width="2"/>
      <path id="Path_29" data-name="Path 29" d="M3.326,377.9c28.818-29.4,50.914-38.811,89.47-20.438,38.055,16.733,80.367,16.2,110.53-15.354,12.044-10.951,24.024-23.79,39.86-28.818,35.608-8.376,67.317,18.348,88.49,44.11,14.349,18.778,26.858,29.993,48.921,39.1a128.993,128.993,0,0,0,62.179,10.321" fill="none" stroke="#dcdaab" stroke-miterlimit="10" stroke-width="2"/>
      <path id="Path_30" data-name="Path 30" d="M3.426,388.37C28.933,361.98,49.651,351.334,84.6,368c30.623,12.578,68.268,19.693,97.54-.053,17.673-11.51,30.52-29.655,49.49-39.229,25.584-12.3,55.521.974,75.93,17.62,18.228,14.319,29.643,35.991,48.189,49.791,24.028,15.991,52.982,23.8,81.791,23.379" fill="none" stroke="#dcdaab" stroke-miterlimit="10" stroke-width="2"/>
      <path id="Path_31" data-name="Path 31" d="M3.276,397.67c30.061-30.963,44.531-32.921,83.39-16.419,28.38,10.066,62.317,15.361,89.33-1.261,12.9-7.61,22.571-19.213,34.2-28.44,27.833-27.04,68.774-15.966,95.82,6.332,16.832,13.059,27.808,31.93,43.409,46.239,10.244,8.723,22.819,14.387,35.581,18.329,14.907,5.148,30.549,7.577,46.3,8.4" fill="none" stroke="#dcdaab" stroke-miterlimit="10" stroke-width="2"/>
      <path id="Path_32" data-name="Path 32" d="M2.946,406.38c34.385-36.684,45.743-26.639,87.68-12.638,28.121,8.094,61.462,10.978,86.27-7.412,11.826-8.5,21.559-19.879,33.62-28.1,30.629-24.462,73.429-7.858,99.55,15.53,17.208,14.538,27.459,36.7,46.929,48.471,8.584,5.269,18.114,8.484,27.791,11.059,12.73,3.781,26.015,5.908,39.22,7.31" fill="none" stroke="#dcdaab" stroke-miterlimit="10" stroke-width="2"/>
      <path id="Path_33" data-name="Path 33" d="M2.516,415.06c22.51-24.606,36.377-30.563,67.65-16.928,30.1,9.921,65.9,17.82,95.39,2.018,19.137-10.869,32.427-30.3,53.04-38.919,31-13.168,66.524,3.856,90.35,24.218,20.482,17.736,31.88,47.723,60.41,54.241a420.718,420.718,0,0,0,46.24,9.28" fill="none" stroke="#dcdaab" stroke-miterlimit="10" stroke-width="2"/>
      <path id="Path_34" data-name="Path 34" d="M2.046,424.29c19.786-21.912,31.993-29.387,60.47-17.308,29.331,9.2,63.114,17.119,92.93,5.609,18.16-7.078,29.832-23.706,46.08-33.781,30.379-22.188,70.08-8.054,97.78,11.791,11.185,8.3,20.013,19.01,28.58,29.979,9.077,12.758,19.267,25.658,35.481,28.519,14.3,2.408,28.858,4.19,43.109,6.921" fill="none" stroke="#dcdaab" stroke-miterlimit="10" stroke-width="2"/>
      <path id="Path_35" data-name="Path 35" d="M1.6,434.65c20.667-23.337,29.607-27.15,59-16.118,24.367,6.981,51.087,12.106,76.54,8.459,29.818-3.313,45.755-32.1,71.88-43.142,22.567-10.646,47.841-3.065,69,7.472,24.928,10.776,41.528,32.919,56.859,54.31,9.654,13.387,24.712,13.865,39.721,13.268a109.721,109.721,0,0,1,22.11,2.441" fill="none" stroke="#dcdaab" stroke-miterlimit="10" stroke-width="2"/>
      <path id="Path_36" data-name="Path 36" d="M1.3,446.72c20.69-24.613,28.8-24.976,58.24-15.258,26.484,6.23,55.686,11.7,82.73,5.239,27.79-6.521,42.884-35.521,70.46-42.77,20.85-6.674,42.3.8,61.19,10,24.926,10.385,42.021,31.82,56.409,53.761,14.163,22.576,36.116,2.958,56.021,8.189" fill="none" stroke="#dcdaab" stroke-miterlimit="10" stroke-width="2"/>
      <path id="Path_37" data-name="Path 37" d="M1.146,461.06c19.1-22.621,24.784-24.394,52.78-15.979,34.832,6.79,76.787,16.131,108.64-4.759,41.194-37.178,65.688-45.784,116.33-17.54,49.162,24.056,39.875,76.576,78.519,51.408,5.2-3.964,11.394-6.535,18.041-5.28" fill="none" stroke="#dcdaab" stroke-miterlimit="10" stroke-width="2"/>
    </g>
  </g>
</svg>
